<?xml version="1.0" encoding="UTF-8" standalone="no"?>
<svg
   xmlns:dc="http://purl.org/dc/elements/1.1/"
   xmlns:cc="http://creativecommons.org/ns#"
   xmlns:rdf="http://www.w3.org/1999/02/22-rdf-syntax-ns#"
   xmlns:svg="http://www.w3.org/2000/svg"
   xmlns="http://www.w3.org/2000/svg"
   xmlns:sodipodi="http://sodipodi.sourceforge.net/DTD/sodipodi-0.dtd"
   xmlns:inkscape="http://www.inkscape.org/namespaces/inkscape"
   version="1.1"
   id="Layer_1"
   x="0px"
   y="0px"
   viewBox="0 0 150 120"
   xml:space="preserve"
   sodipodi:docname="main.svg"
   inkscape:version="0.92.5 (2060ec1f9f, 2020-04-08)"
   width="150"
   height="120"><metadata
     id="metadata13"><rdf:RDF><cc:Work
         rdf:about=""><dc:format>image/svg+xml</dc:format><dc:type
           rdf:resource="http://purl.org/dc/dcmitype/StillImage" /><dc:title /></cc:Work></rdf:RDF></metadata><defs
     id="defs11" /><sodipodi:namedview
     pagecolor="#ffffff"
     bordercolor="#666666"
     borderopacity="1"
     objecttolerance="10"
     gridtolerance="10"
     guidetolerance="10"
     inkscape:pageopacity="0"
     inkscape:pageshadow="2"
     inkscape:window-width="2488"
     inkscape:window-height="1376"
     id="namedview9"
     showgrid="false"
     inkscape:zoom="6.0929714"
     inkscape:cx="102.92716"
     inkscape:cy="57.448817"
     inkscape:window-x="72"
     inkscape:window-y="27"
     inkscape:window-maximized="1"
     inkscape:current-layer="layer1"
     inkscape:object-paths="true" /><style
     type="text/css"
     id="style2">.st0{fill-rule:evenodd;clip-rule:evenodd;}</style><g
     inkscape:groupmode="layer"
     id="layer2"
     inkscape:label="Layer 2"
     transform="translate(0,21.690002)"
     style="display:none" /><g
     inkscape:groupmode="layer"
     id="layer1"
     inkscape:label="Layer 1"
     style="display:inline"
     transform="translate(0,21.690002)"><rect
       id="rect3718"
       width="150"
       height="120.262"
       x="0"
       y="-21.952003"
       style="fill:#d4a373;fill-opacity:1;stroke-width:1.38138759;paint-order:stroke markers fill"
       inkscape:export-xdpi="408.32001"
       inkscape:export-ydpi="408.32001"
       ry="10.966995" /><g
       id="g6"
       style="opacity:1;fill:#ffffff;fill-opacity:1;stroke:#000000;stroke-opacity:1"
       transform="matrix(1.2108491,0,0,1.2082159,0.60542455,-21.085897)"
       inkscape:export-xdpi="408.32001"
       inkscape:export-ydpi="408.32001"><path
         class="st0"
         d="m 8.32,0 h 106.24 c 4.57,0 8.32,3.74 8.32,8.32 V 90 c 0,4.57 -3.74,8.32 -8.32,8.32 H 8.32 C 3.74,98.31 0,94.57 0,90 V 8.32 C 0,3.74 3.74,0 8.32,0 Z M 37.46,65.4 H 23.01 V 58.87 L 37.46,41.69 h 6.9 v 17.56 h 3.59 v 6.15 h -3.59 v 5.35 h -6.9 z m 0,-6.15 v -9.02 l -7.63,9.02 z m 12.31,-2.91 c 0,-5.43 0.98,-9.23 2.93,-11.39 1.96,-2.17 4.94,-3.25 8.93,-3.25 1.92,0 3.51,0.24 4.74,0.71 1.24,0.47 2.24,1.09 3.02,1.85 0.78,0.76 1.4,1.56 1.84,2.39 0.45,0.84 0.81,1.82 1.08,2.93 0.53,2.13 0.8,4.35 0.8,6.67 0,5.18 -0.88,8.97 -2.63,11.37 -1.75,2.4 -4.77,3.61 -9.06,3.61 -2.4,0 -4.34,-0.39 -5.83,-1.15 -1.48,-0.77 -2.69,-1.89 -3.65,-3.37 -0.69,-1.05 -1.22,-2.49 -1.61,-4.31 -0.37,-1.84 -0.56,-3.85 -0.56,-6.06 z m 7.86,0.01 c 0,3.63 0.32,6.12 0.96,7.45 0.64,1.33 1.58,2 2.8,2 0.8,0 1.5,-0.28 2.1,-0.84 0.59,-0.57 1.02,-1.46 1.3,-2.68 0.28,-1.22 0.42,-3.13 0.42,-5.71 0,-3.79 -0.32,-6.34 -0.96,-7.65 -0.65,-1.3 -1.61,-1.96 -2.89,-1.96 -1.32,0 -2.26,0.67 -2.85,2 -0.59,1.32 -0.88,3.79 -0.88,7.39 z M 89.37,65.4 H 74.92 V 58.87 L 89.37,41.69 h 6.9 v 17.56 h 3.59 v 6.15 h -3.59 v 5.35 h -6.9 z m 0,-6.15 v -9.02 l -7.63,9.02 z m 28.6,-35.96 H 5.29 V 90.8 c 0,0.64 0.25,1.2 0.67,1.63 0.42,0.43 0.99,0.67 1.63,0.67 h 108.04 c 0.64,0 1.2,-0.25 1.63,-0.67 0.43,-0.43 0.67,-0.99 0.67,-1.63 V 23.29 Z M 106.64,9.35 c 2.27,0 4.11,1.84 4.11,4.11 0,2.27 -1.84,4.11 -4.11,4.11 -2.27,0 -4.11,-1.84 -4.11,-4.11 0.01,-2.27 1.85,-4.11 4.11,-4.11 z m -27.84,0 c 2.27,0 4.11,1.84 4.11,4.11 0,2.27 -1.84,4.11 -4.11,4.11 -2.27,0 -4.11,-1.84 -4.11,-4.11 0,-2.27 1.84,-4.11 4.11,-4.11 z m 13.92,0 c 2.27,0 4.11,1.84 4.11,4.11 0,2.27 -1.84,4.11 -4.11,4.11 -2.27,0 -4.11,-1.84 -4.11,-4.11 0,-2.27 1.84,-4.11 4.11,-4.11 z"
         id="path4"
         style="clip-rule:evenodd;fill:#ffffff;fill-opacity:1;fill-rule:evenodd;stroke:#000000;stroke-opacity:1"
         inkscape:connector-curvature="0" /></g></g></svg>